<svg width="419" height="419" viewBox="0 0 419 419" fill="none" xmlns="http://www.w3.org/2000/svg">
<g id="car-of-formula-1-svgrepo-com 1">
<g clip-path="url(#clip0)">
<g id="Group">
<g id="Group_2">
<path id="righ-wheel" d="M325.204 199.149C341.285 199.149 354.337 212.179 354.337 228.282C354.337 229.525 354.235 230.743 354.074 231.939C352.266 246.306 340.042 257.41 325.2 257.41C309.934 257.41 297.451 245.695 296.182 230.768C296.11 229.945 296.055 229.118 296.055 228.282C296.055 212.184 309.106 199.149 325.204 199.149ZM339.796 217.297L333.847 223.237C334.31 224.034 334.679 224.896 334.904 225.804H343.284C342.851 222.626 341.633 219.741 339.796 217.297ZM343.309 230.849H334.874C334.632 231.748 334.284 232.597 333.813 233.386L339.771 239.335C341.612 236.912 342.864 234.01 343.309 230.849ZM327.725 246.378C330.873 245.945 333.746 244.702 336.168 242.882L330.245 236.95C329.473 237.404 328.612 237.739 327.725 237.968V246.378ZM327.725 218.582C328.633 218.824 329.494 219.193 330.296 219.66L336.219 213.728C333.788 211.87 330.89 210.648 327.72 210.207L327.725 218.582ZM322.68 210.207C319.493 210.648 316.6 211.874 314.164 213.732L320.092 219.66C320.889 219.193 321.759 218.824 322.676 218.582L322.68 210.207ZM322.68 246.378V237.977C321.78 237.735 320.932 237.404 320.142 236.942L314.224 242.882C316.646 244.711 319.519 245.945 322.68 246.378ZM310.604 239.352L316.574 233.377C316.12 232.593 315.734 231.757 315.492 230.849H307.125C307.566 234.01 308.759 236.929 310.604 239.352ZM315.492 225.808C315.717 224.896 316.082 224.034 316.54 223.241L310.6 217.301C308.754 219.741 307.541 222.63 307.108 225.812H315.492V225.808Z" fill="black"/>
<path id="f1-body" d="M87.9245 228.279C87.9245 215.342 80.9745 204.022 70.6471 197.772L139.286 167.367H182.348C184.911 167.367 186.99 169.446 186.99 172.013V178.114C186.99 180.677 184.915 182.76 182.348 182.76H179.293V186.99H187.105C189.561 186.99 191.755 188.565 192.523 190.898L193.147 192.761C207.365 191.611 214.128 202.494 221.235 202.494L226.034 196.72C228.894 193.27 233.273 191.454 237.736 191.866C239.094 191.993 240.541 192.265 242.013 192.761L244.707 202.494C244.707 202.494 269.143 201.073 300.906 202.214C293.913 208.736 289.505 217.998 289.505 228.292C289.505 229.31 289.34 250.865 289.34 250.865H79.8077C83.9488 245.824 86.7535 239.629 87.6148 232.764C87.8142 231.181 87.9245 229.696 87.9245 228.279Z" fill="#D52A2A"/>
<path id="f1-front" d="M360.892 228.277C360.892 220.097 358.096 212.583 353.454 206.553C377.996 209.973 401.841 215.671 419 225.078C419 230.068 397.072 225.159 397.072 235.465H413.989C415.695 235.465 417.078 236.844 417.078 238.554V247.77C417.078 249.475 415.699 250.863 413.989 250.863H371.691C369.981 250.863 368.597 249.48 368.597 247.77V233.539H360.442C360.481 233.276 360.544 233.025 360.578 232.754C360.786 231.18 360.892 229.695 360.892 228.277Z" fill="#D42A2A"/>
<path id="f1-wing" d="M7.6925 161.59H52.8974C57.1531 161.59 60.5984 165.036 60.5984 169.287V179.368C60.5984 181.405 59.788 183.365 58.3454 184.808L50.4746 192.674C31.6103 193.599 16.5307 209.192 16.5307 228.277C16.5307 228.748 16.5816 229.228 16.6028 229.695H0.00421143V169.291C-0.00427628 165.036 3.44527 161.59 7.6925 161.59Z" fill="black"/>
<path id="left-wheel" d="M50.9626 199.149C67.0436 199.149 80.095 212.179 80.095 228.282C80.095 229.525 79.9932 230.743 79.832 231.939C78.0245 246.306 65.7962 257.41 50.9542 257.41C35.6879 257.41 23.205 245.695 21.9321 230.768C21.8599 229.945 21.8132 229.118 21.8132 228.282C21.8175 212.184 34.8605 199.149 50.9626 199.149ZM65.55 217.297L59.6056 223.237C60.0681 224.034 60.433 224.896 60.6621 225.804H69.0463C68.6093 222.626 67.3915 219.741 65.55 217.297ZM69.0675 230.849H60.6324C60.3906 231.748 60.0426 232.597 59.5717 233.386L65.5288 239.335C67.3703 236.912 68.622 234.01 69.0675 230.849ZM53.483 246.378C56.6313 245.945 59.508 244.702 61.9265 242.882L56.0033 236.959C55.2268 237.408 54.3655 237.744 53.4787 237.977V246.378H53.483ZM53.483 218.582C54.3952 218.824 55.2565 219.193 56.0542 219.66L61.9775 213.728C59.5505 211.87 56.6482 210.648 53.4745 210.207V218.586H53.483V218.582ZM48.4381 210.207C45.2516 210.648 42.3578 211.874 39.9223 213.732L45.8456 219.66C46.6433 219.193 47.5131 218.824 48.4296 218.582L48.4381 210.207ZM48.4381 246.378V237.977C47.5385 237.735 46.6899 237.404 45.8965 236.942L39.9733 242.882C42.4003 244.711 45.277 245.945 48.4381 246.378ZM36.3582 239.352L42.3324 233.377C41.8784 232.593 41.488 231.757 41.2462 230.849H32.879C33.3287 234.01 34.5168 236.929 36.3582 239.352ZM41.2504 225.808C41.4838 224.896 41.8402 224.034 42.3027 223.241L36.3625 217.301C34.5168 219.741 33.3033 222.63 32.8747 225.812H41.2504V225.808Z" fill="black"/>
</g>
</g>
</g>
</g>
<defs>
<clipPath id="clip0">
<rect width="419" height="418.996" transform="matrix(-1 0 0 1 419 0)" fill="white"/>
</clipPath>
</defs>
</svg>
