<svg width="419" height="97" viewBox="0 0 419 97" fill="none" xmlns="http://www.w3.org/2000/svg">
<g id="Group">
<g id="Group_2">
<path id="righ-wheel" d="M325.204 38.1493C341.285 38.1493 354.337 51.1795 354.337 67.2817C354.337 68.5248 354.235 69.7426 354.074 70.9391C352.266 85.3059 340.042 96.4098 325.2 96.4098C309.934 96.4098 297.451 84.6949 296.182 69.7681C296.11 68.9449 296.055 68.1175 296.055 67.2817C296.055 51.1837 309.106 38.1493 325.204 38.1493ZM339.796 56.2966L333.847 62.2367C334.31 63.0344 334.679 63.8957 334.904 64.8037H343.284C342.851 61.6257 341.633 58.7405 339.796 56.2966ZM343.309 69.8487H334.874C334.632 70.7482 334.284 71.5968 333.813 72.386L339.771 78.3347C341.612 75.9119 342.864 73.0097 343.309 69.8487ZM327.725 85.378C330.873 84.9453 333.746 83.702 336.168 81.8818L330.245 75.9501C329.473 76.4041 328.612 76.7393 327.725 76.9684V85.378ZM327.725 57.5822C328.633 57.824 329.494 58.1932 330.296 58.6599L336.219 52.7282C333.788 50.8698 330.89 49.6478 327.72 49.2065L327.725 57.5822ZM322.68 49.2065C319.493 49.6478 316.6 50.874 314.164 52.7324L320.092 58.6599C320.889 58.1932 321.759 57.824 322.676 57.5822L322.68 49.2065ZM322.68 85.378V76.9769C321.78 76.7351 320.932 76.4041 320.142 75.9416L314.224 81.8818C316.646 83.7105 319.519 84.9453 322.68 85.378ZM310.604 78.3516L316.574 72.3775C316.12 71.5925 315.734 70.7567 315.492 69.8487H307.125C307.566 73.0097 308.759 75.9289 310.604 78.3516ZM315.492 64.808C315.717 63.8958 316.082 63.0344 316.54 62.241L310.6 56.3008C308.754 58.7405 307.541 61.63 307.108 64.8122H315.492V64.808Z" fill="black"/>
<path id="f1-body" d="M87.9245 67.2791C87.9245 54.3422 80.9745 43.0219 70.6471 36.7719L139.286 6.36662H182.348C184.911 6.36662 186.99 8.4457 186.99 11.0127V17.1141C186.99 19.6769 184.915 21.7602 182.348 21.7602H179.293V25.9905H187.105C189.561 25.9905 191.755 27.5646 192.523 29.8983L193.147 31.761C207.365 30.6111 214.128 41.4944 221.235 41.4944L226.034 35.7197C228.894 32.2701 233.273 30.4541 237.736 30.8657C239.094 30.993 240.541 31.2645 242.013 31.761L244.707 41.4944C244.707 41.4944 269.143 40.073 300.906 41.2143C293.913 47.7358 289.505 56.9983 289.505 67.2918C289.505 68.3101 289.34 89.8645 289.34 89.8645H79.8077C83.9488 84.8238 86.7535 78.6291 87.6148 71.7639C87.8142 70.1813 87.9245 68.6962 87.9245 67.2791Z" fill="#D52A2A"/>
<path id="f1-front" d="M360.892 67.2774C360.892 59.0969 358.096 51.5826 353.454 45.5533C377.996 48.9731 401.841 54.6715 419 64.0782C419 69.0679 397.072 64.1588 397.072 74.465H413.989C415.695 74.465 417.078 75.844 417.078 77.5539V86.7697C417.078 88.4754 415.699 89.8629 413.989 89.8629H371.691C369.981 89.8629 368.597 88.4796 368.597 86.7697V72.5387H360.442C360.481 72.2756 360.544 72.0253 360.578 71.7538C360.786 70.1796 360.892 68.6946 360.892 67.2774Z" fill="#D42A2A"/>
<path id="f1-wing" d="M7.6925 0.590233H52.8974C57.1531 0.590233 60.5984 4.03554 60.5984 8.28702V18.3684C60.5984 20.405 59.788 22.3653 58.3454 23.8079L50.4746 31.6744C31.6103 32.5994 16.5307 48.1924 16.5307 67.2774C16.5307 67.7484 16.5816 68.2278 16.6028 68.6945H0.00421143V8.29126C-0.00427628 4.03554 3.44527 0.590233 7.6925 0.590233Z" fill="black"/>
<path id="left-wheel" d="M50.9626 38.1493C67.0436 38.1493 80.095 51.1795 80.095 67.2817C80.095 68.5248 79.9932 69.7426 79.832 70.9391C78.0245 85.3059 65.7962 96.4098 50.9542 96.4098C35.6879 96.4098 23.205 84.6949 21.9321 69.7681C21.8599 68.9449 21.8132 68.1175 21.8132 67.2817C21.8175 51.1837 34.8605 38.1493 50.9626 38.1493ZM65.55 56.2966L59.6056 62.2367C60.0681 63.0344 60.433 63.8957 60.6621 64.8037H69.0463C68.6093 61.6257 67.3915 58.7405 65.55 56.2966ZM69.0675 69.8487H60.6324C60.3906 70.7482 60.0426 71.5968 59.5717 72.386L65.5288 78.3347C67.3703 75.9119 68.622 73.0097 69.0675 69.8487ZM53.483 85.378C56.6313 84.9453 59.508 83.702 61.9265 81.8818L56.0033 75.9586C55.2268 76.4083 54.3655 76.7435 53.4787 76.9769V85.378H53.483ZM53.483 57.5822C54.3952 57.824 55.2565 58.1932 56.0542 58.6599L61.9775 52.7282C59.5505 50.8698 56.6482 49.6478 53.4745 49.2065V57.5864H53.483V57.5822ZM48.4381 49.2065C45.2516 49.6478 42.3578 50.874 39.9223 52.7324L45.8456 58.6599C46.6433 58.1932 47.5131 57.824 48.4296 57.5822L48.4381 49.2065ZM48.4381 85.378V76.9769C47.5385 76.7351 46.6899 76.4041 45.8965 75.9416L39.9733 81.8818C42.4003 83.7105 45.277 84.9453 48.4381 85.378ZM36.3582 78.3516L42.3324 72.3775C41.8784 71.5925 41.488 70.7567 41.2462 69.8487H32.879C33.3287 73.0097 34.5168 75.9289 36.3582 78.3516ZM41.2504 64.808C41.4838 63.8958 41.8402 63.0344 42.3027 62.241L36.3625 56.3008C34.5168 58.7405 33.3033 61.63 32.8747 64.8122H41.2504V64.808Z" fill="black"/>
</g>
</g>
</svg>
