<?xml version="1.0" standalone="no"?>
<!DOCTYPE svg PUBLIC "-//W3C//DTD SVG 20010904//EN"
 "http://www.w3.org/TR/2001/REC-SVG-20010904/DTD/svg10.dtd">
<svg version="1.0" xmlns="http://www.w3.org/2000/svg"
 width="512.000000pt" height="512.000000pt" viewBox="0 0 512.000000 512.000000"
 preserveAspectRatio="xMidYMid meet">
<metadata>
Created by potrace 1.11, written by Peter Selinger 2001-2013
</metadata>
<g transform="translate(0.000000,512.000000) scale(0.100000,-0.100000)"
fill="#000000" stroke="none">
<path d="M2408 3255 c-8 -19 -8 -28 2 -40 11 -13 80 -15 551 -15 l539 0 12 25
c8 19 8 28 -2 40 -11 13 -80 15 -551 15 l-539 0 -12 -25z"/>
<path d="M3610 3265 c-10 -12 -10 -21 -2 -40 11 -24 15 -25 110 -25 101 0 122
7 122 42 0 28 -33 38 -128 38 -68 0 -93 -4 -102 -15z"/>
<path d="M12 3028 c-9 -9 -12 -100 -12 -349 l0 -336 55 -53 c40 -37 62 -51 75
-47 25 7 26 5 34 -73 14 -133 92 -241 214 -298 48 -22 71 -26 142 -26 75 0 93
3 150 31 36 17 77 43 92 57 l28 26 20 -20 c20 -20 29 -20 1395 -20 1364 0
1374 0 1385 20 7 13 7 26 1 38 -5 9 -86 55 -181 102 -148 73 -174 82 -191 72
-14 -9 -25 -10 -39 -2 -23 12 -25 17 -7 17 12 0 69 9 117 18 14 2 42 7 63 10
40 5 97 14 137 20 186 29 178 27 188 55 4 10 7 -20 7 -68 1 -108 32 -186 103
-255 72 -70 148 -101 252 -101 71 -1 94 4 140 25 31 14 72 40 92 58 44 39 115
45 136 11 12 -19 23 -20 350 -20 250 0 341 3 350 12 17 17 17 279 0 296 -8 8
-52 12 -132 12 -93 0 -117 3 -108 12 7 7 12 30 12 52 0 34 7 47 42 83 37 38
40 45 30 67 -8 18 -22 26 -54 31 -24 4 -52 9 -63 11 -64 12 -137 24 -184 29
-30 4 -61 8 -70 10 -9 1 -43 6 -76 9 -33 4 -81 9 -107 12 -37 4 -51 1 -65 -13
-16 -16 -31 -18 -83 -15 -36 2 -85 9 -110 16 -28 9 -76 12 -125 9 -113 -6
-113 -6 -187 -3 -56 2 -69 6 -73 21 -4 11 -9 20 -13 20 -27 5 -62 8 -171 14
-87 4 -131 11 -148 22 -20 13 -28 14 -47 4 -16 -9 -60 -11 -152 -7 -71 2 -141
5 -156 5 -26 1 -28 4 -28 46 0 43 1 45 29 45 39 0 57 23 43 55 -11 24 -15 25
-111 25 -112 0 -133 -10 -113 -55 9 -19 19 -25 42 -25 30 0 31 -1 28 -42 l-3
-43 -280 3 c-154 1 -284 2 -289 2 -6 0 -5 5 2 12 16 16 16 120 0 136 -7 7 -25
12 -40 12 l-28 0 0 103 c0 70 -4 109 -13 121 -13 18 -32 18 -338 13 -178 -3
-344 -10 -369 -16 -25 -5 -65 -12 -90 -16 -110 -15 -371 -93 -485 -145 -131
-59 -180 -83 -237 -118 l-68 -42 0 158 c0 110 -4 162 -12 170 -17 17 -679 17
-696 0z"/>
<path d="M3530 2945 c-10 -12 -10 -21 -2 -40 10 -23 18 -25 71 -25 70 0 91 16
73 55 -10 23 -18 25 -71 25 -40 0 -62 -5 -71 -15z"/>
<path d="M3770 2945 c-10 -12 -10 -21 -2 -40 l12 -25 339 0 c292 0 340 2 351
15 10 12 10 21 2 40 l-12 25 -339 0 c-292 0 -340 -2 -351 -15z"/>
</g>
</svg>
